<svg xmlns="http://www.w3.org/2000/svg" width="1120" height="960" viewBox="0 0 1120 960">
  <rect width="1120" height="960" fill="#ffffff"/>
  <rect x="2" y="2" width="1116" height="956" fill="none" stroke="#0a0a0a" stroke-width="4"/>

  <g opacity="0.08" fill="#0a0a0a">
    <rect x="72" y="140" width="976" height="700"/>
  </g>

  <!-- Plotter-like strokes + human framing marks -->
  <g fill="none" stroke="#0a0a0a" stroke-width="6" stroke-linecap="round" stroke-linejoin="round" opacity="0.75">
    <!-- Frame / human decisions -->
    <path d="M150 260 L520 260"/>
    <path d="M150 700 L520 700"/>
    <path d="M150 260 L150 700"/>

    <!-- Plotter geometry -->
    <path d="M640 280 L980 620"/>
    <path d="M980 280 L640 620"/>
    <path d="M700 280 L980 560"/>
    <path d="M640 340 L920 620"/>
    <path d="M760 280 L980 500"/>
    <path d="M640 400 L860 620"/>

    <!-- Bridge between: collaboration -->
    <path d="M520 480 C580 430, 610 420, 640 400"/>
  </g>

  <g fill="#0a0a0a">
    <text x="72" y="106" font-family="ui-sans-serif, system-ui, -apple-system, Segoe UI, Roboto, Helvetica, Arial" font-size="18" letter-spacing="3" font-weight="700">
      MANFRED MOHR / PLOTTER
    </text>
    <text x="72" y="132" font-family="ui-sans-serif, system-ui, -apple-system, Segoe UI, Roboto, Helvetica, Arial" font-size="14" opacity="0.7">
      THE ARTIST AND THE MACHINE
    </text>
  </g>
</svg>

