<svg width="1200" height="1200" viewBox="0 0 1200 1200" fill="none" xmlns="http://www.w3.org/2000/svg">
  <rect width="1200" height="1200" fill="#FFFFFF"/>
  <rect x="96" y="96" width="1008" height="1008" stroke="#000000" stroke-width="2"/>
  <rect x="220" y="220" width="760" height="760" stroke="#000000" stroke-width="2"/>
  <rect x="360" y="360" width="480" height="480" stroke="#000000" stroke-width="2"/>
  <line x1="600" y1="120" x2="600" y2="1080" stroke="#000000" stroke-width="3"/>
  <line x1="120" y1="600" x2="1080" y2="600" stroke="#000000" stroke-width="3"/>
  <line x1="348.586" y1="850.586" x2="850.586" y2="348.586" stroke="#000000" stroke-width="3"/>
  <line x1="348.586" y1="348.586" x2="558.586" y2="558.586" stroke="#000000" stroke-width="3"/>
  <circle cx="600" cy="600" r="112" fill="#FFFFFF" stroke="#000000" stroke-width="3"/>
  <circle cx="600" cy="600" r="28" fill="#000000"/>
  <rect x="512" y="512" width="176" height="176" stroke="#000000" stroke-width="2"/>
  <path d="M600 312L624 408H576L600 312Z" fill="#000000"/>
  <path d="M888 600L792 624V576L888 600Z" fill="#000000"/>
  <path d="M600 888L576 792H624L600 888Z" fill="#000000"/>
  <path d="M312 600L408 576V624L312 600Z" fill="#000000"/>
  <rect x="144" y="1040" width="360" height="2" fill="#000000"/>
  <text x="144" y="1024" fill="#000000" font-family="Courier New, monospace" font-size="24" letter-spacing="5">
    WHITE CHAMBER 01
  </text>
  <text x="144" y="1078" fill="#000000" font-family="Courier New, monospace" font-size="16" letter-spacing="3">
    NULLOBORN / synthetic birth study / 2026
  </text>
</svg>
